<svg xmlns="http://www.w3.org/2000/svg" viewBox="0 0 100 100">
  <rect width="100" height="100" rx="22" fill="#4cb0e0"/>
  <circle cx="50" cy="52" r="38" fill="#fff7ea"/>
  <circle cx="26" cy="32" r="12" fill="#7a5230"/><circle cx="74" cy="32" r="12" fill="#7a5230"/>
  <circle cx="26" cy="32" r="5.5" fill="#ff5d73"/><circle cx="74" cy="32" r="5.5" fill="#ff5d73"/>
  <circle cx="50" cy="50" r="30" fill="#7a5230"/><circle cx="50" cy="54" r="24" fill="#ffe0c4"/>
  <path d="M27 47 Q29 31 50 29 Q71 31 73 47 Q64 39 50 41 Q36 39 27 47 Z" fill="#7a5230"/>
  <circle cx="41" cy="55" r="3.8" fill="#3a2a1a"/><circle cx="59" cy="55" r="3.8" fill="#3a2a1a"/>
  <circle cx="42.3" cy="53.7" r="1.3" fill="#fff"/><circle cx="60.3" cy="53.7" r="1.3" fill="#fff"/>
  <circle cx="34" cy="62" r="4" fill="#ffb3c1"/><circle cx="66" cy="62" r="4" fill="#ffb3c1"/>
  <path d="M43 64 Q50 70 57 64" stroke="#c2502f" stroke-width="2.4" fill="none" stroke-linecap="round"/>
</svg>
